#!OML:ASF C:\Vicon Data\Big\jianyuan-12\jianyuan\Session 1\Capture.male.ASF
:FULLY-SPECIFIED
:DEGREES
195
root -6.637918 17.177898 -8.540845 5.852305 2.498055 7.539599
lowerback -9.723006 -0.909028 -9.324015 
upperback 1.851820 0.041274 -2.175063 
thorax 7.465767 -0.360092 2.932241 
lowerneck -4.490807 -4.849296 -5.785706 
upperneck 6.224668 -6.638723 7.123350 
head 3.339620 -3.218894 3.110899 
rclavicle 0.000000 0.000000 
rhumerus -43.556928 -32.285874 -72.481816 
rradius 32.017512 
rwrist 40.487135 
rhand -18.659783 -4.481220 
rfingers 0.000000 
rthumb 7.633544 -34.323409 
lclavicle 0.000000 0.000000 
lhumerus -28.357931 27.538247 80.643116 
lradius 30.161857 
lwrist -46.106905 
lhand -9.033318 4.396319 
lfingers 0.000000 
lthumb 16.914387 33.679730 
rfemur -32.472975 -10.299247 10.481000 
rtibia 72.933428 
rfoot -14.860982 -9.917304 
rtoes -6.071577 
lfemur -13.509019 -3.130858 -32.541730 
ltibia 21.901843 
lfoot -20.585036 3.351956 
ltoes -17.497552 
196
root -6.627823 17.173090 -8.476991 5.839238 2.547571 7.547075
lowerback -9.624674 -0.988058 -9.370230 
upperback 1.845373 -0.072606 -2.139257 
thorax 7.416611 -0.415917 2.978410 
lowerneck -4.508349 -4.827441 -5.751856 
upperneck 6.277233 -6.608795 7.059547 
head 3.353928 -3.204593 3.083643 
rclavicle 0.000000 0.000000 
rhumerus -43.831060 -32.220669 -72.347285 
rradius 32.083037 
rwrist 40.441505 
rhand -18.589594 -4.271136 
rfingers 0.000000 
rthumb 7.701255 -34.110902 
lclavicle 0.000000 0.000000 
lhumerus -28.009959 27.104870 80.929057 
lradius 30.355404 
lwrist -45.732114 
lhand -9.042387 4.467001 
lfingers 0.000000 
lthumb 16.905673 33.751159 
rfemur -33.094976 -10.184588 10.588976 
rtibia 72.557237 
rfoot -15.170157 -9.680698 
rtoes -5.432286 
lfemur -13.331831 -3.093176 -32.596248 
ltibia 22.077769 
lfoot -20.818154 3.258955 
ltoes -17.729468 
197
root -6.622959 17.168256 -8.422050 5.872741 2.760963 7.386559
lowerback -9.477464 -1.111410 -9.307205 
upperback 1.834478 -0.267482 -2.029767 
thorax 7.343741 -0.506022 3.030263 
lowerneck -4.529122 -4.826920 -5.762239 
upperneck 6.286477 -6.599758 6.981969 
head 3.356900 -3.201991 3.058679 
rclavicle 0.000000 0.000000 
rhumerus -44.039634 -32.195973 -72.233991 
rradius 32.155548 
rwrist 40.389043 
rhand -18.554109 -4.333070 
rfingers 0.000000 
rthumb 7.735573 -34.171562 
lclavicle 0.000000 0.000000 
lhumerus -27.591517 26.774853 81.220684 
lradius 30.489872 
lwrist -45.461734 
lhand -9.006447 4.394157 
lfingers 0.000000 
lthumb 16.940203 33.675375 
rfemur -33.738545 -10.081609 10.934746 
rtibia 72.077927 
rfoot -15.648891 -9.572252 
rtoes -6.474415 
lfemur -13.219561 -3.070080 -32.429480 
ltibia 22.216224 
lfoot -20.971609 3.009944 
ltoes -17.628817 
198
root -6.611745 17.163492 -8.359820 5.901238 2.799831 7.282217
lowerback -9.414225 -1.166092 -9.186082 
upperback 1.814766 -0.365052 -1.989970 
thorax 7.296395 -0.546172 2.990685 
lowerneck -4.531362 -4.810467 -5.941608 
upperneck 6.346053 -6.581615 7.142534 
head 3.393857 -3.192523 3.149888 
rclavicle 0.000000 0.000000 
rhumerus -44.266212 -32.075362 -72.236891 
rradius 32.322606 
rwrist 40.034468 
rhand -18.508650 -4.499618 
rfingers 0.000000 
rthumb 7.779406 -34.336492 
lclavicle 0.000000 0.000000 
lhumerus -27.209308 26.443651 81.429198 
lradius 30.640138 
lwrist -45.218222 
lhand -8.896772 4.372984 
lfingers 0.000000 
lthumb 17.045825 33.645113 
rfemur -34.383241 -9.882822 11.187555 
rtibia 71.562633 
rfoot -16.143230 -9.521336 
rtoes -6.036996 
lfemur -13.069060 -3.139981 -32.359094 
ltibia 22.315539 
lfoot -21.200389 3.029080 
ltoes -18.010512 
199
root -6.600708 17.161067 -8.291309 5.903404 2.790321 7.340200
lowerback -9.393354 -1.223423 -9.254321 
upperback 1.820390 -0.436783 -1.965306 
thorax 7.300752 -0.584819 3.043598 
lowerneck -4.515053 -4.777746 -5.913178 
upperneck 6.360511 -6.535043 7.070233 
head 3.387017 -3.171124 3.122067 
rclavicle 0.000000 0.000000 
rhumerus -44.439534 -31.862081 -72.244435 
rradius 32.452517 
rwrist 39.560420 
rhand -18.441992 -4.620494 
rfingers 0.000000 
rthumb 7.843716 -34.454970 
lclavicle 0.000000 0.000000 
lhumerus -26.810661 26.087082 81.718651 
lradius 30.770022 
lwrist -44.890921 
lhand -8.896709 4.430428 
lfingers 0.000000 
lthumb 17.045858 33.702573 
rfemur -34.964455 -9.612147 11.180510 
rtibia 71.011565 
rfoot -16.630112 -9.401647 
rtoes -5.364124 
lfemur -12.847759 -3.190543 -32.471730 
ltibia 22.410744 
lfoot -21.460295 3.027638 
ltoes -18.273077 
200
root -6.591153 17.157665 -8.227781 5.943605 2.851492 7.258887
lowerback -9.365255 -1.281394 -9.199854 
upperback 1.820242 -0.526698 -1.892581 
thorax 7.295334 -0.626869 3.076824 
lowerneck -4.511705 -4.760721 -5.898537 
upperneck 6.343232 -6.506807 7.009544 
head 3.374370 -3.158532 3.099599 
rclavicle 0.000000 0.000000 
rhumerus -44.631387 -31.750521 -72.165723 
rradius 32.524314 
rwrist 39.419546 
rhand -18.510804 -4.643281 
rfingers 0.000000 
rthumb 7.777315 -34.480218 
lclavicle 0.000000 0.000000 
lhumerus -26.333222 25.961629 82.019469 
lradius 30.735376 
lwrist -44.740951 
lhand -9.006845 4.455858 
lfingers 0.000000 
lthumb 16.939832 33.737093 
rfemur -35.583111 -9.435133 11.367257 
rtibia 70.415005 
rfoot -17.011520 -9.279792 
rtoes -5.264152 
lfemur -12.686797 -3.172036 -32.415971 
ltibia 22.485341 
lfoot -21.663319 2.888097 
ltoes -18.163943 
201
root -6.584239 17.152114 -8.162612 5.952149 2.964458 7.131343
lowerback -9.298563 -1.334992 -9.100704 
upperback 1.813866 -0.620068 -1.837554 
thorax 7.260283 -0.667102 3.066393 
lowerneck -4.519665 -4.775977 -5.967256 
upperneck 6.394511 -6.528210 7.047680 
head 3.400650 -3.169456 3.124779 
rclavicle 0.000000 0.000000 
rhumerus -44.934672 -31.823154 -71.965526 
rradius 32.517212 
rwrist 39.665207 
rhand -18.676888 -4.468332 
rfingers 0.000000 
rthumb 7.617064 -34.311176 
lclavicle 0.000000 0.000000 
lhumerus -25.902889 25.659959 82.259217 
lradius 30.775169 
lwrist -44.481495 
lhand -8.942367 4.497108 
lfingers 0.000000 
lthumb 17.001880 33.773081 
rfemur -36.089436 -9.308607 11.633235 
rtibia 69.733207 
rfoot -17.449069 -9.184850 
rtoes -5.561313 
lfemur -12.490503 -3.135414 -32.305496 
ltibia 22.570190 
lfoot -21.839023 2.774301 
ltoes -18.439832 
202
root -6.576965 17.148173 -8.098049 6.017219 3.022833 7.033401
lowerback -9.312692 -1.409057 -9.062448 
upperback 1.817286 -0.725067 -1.748951 
thorax 7.285599 -0.718761 3.122514 
lowerneck -4.609852 -4.763760 -6.004148 
upperneck 6.462679 -6.504886 7.011392 
head 3.439865 -3.157779 3.119026 
rclavicle 0.000000 0.000000 
rhumerus -45.099016 -31.805114 -71.835580 
rradius 32.578034 
rwrist 39.609112 
rhand -18.649440 -4.417732 
rfingers 0.000000 
rthumb 7.643518 -34.259601 
lclavicle 0.000000 0.000000 
lhumerus -25.493119 25.428710 82.548829 
lradius 30.942276 
lwrist -44.373318 
lhand -8.921676 4.533525 
lfingers 0.000000 
lthumb 17.021820 33.807745 
rfemur -36.673722 -9.102041 11.840655 
rtibia 68.990350 
rfoot -17.876565 -9.276510 
rtoes -5.235498 
lfemur -12.355924 -3.144402 -32.223559 
ltibia 22.637821 
lfoot -22.050828 2.696770 
ltoes -18.653556 
203
root -6.568218 17.147314 -8.030814 6.042778 3.080261 6.973279
lowerback -9.307195 -1.482288 -9.052066 
upperback 1.831902 -0.826363 -1.683553 
thorax 7.311798 -0.769935 3.170015 
lowerneck -4.640086 -4.743908 -6.021107 
upperneck 6.492661 -6.476337 7.003992 
head 3.454396 -3.143578 3.120844 
rclavicle 0.000000 0.000000 
rhumerus -45.269089 -31.693002 -71.800958 
rradius 32.710387 
rwrist 39.252411 
rhand -18.525518 -4.421809 
rfingers 0.000000 
rthumb 7.763148 -34.259285 
lclavicle 0.000000 0.000000 
lhumerus -25.091069 25.105661 82.793273 
lradius 31.102405 
lwrist -44.081737 
lhand -8.903905 4.462533 
lfingers 0.000000 
lthumb 17.038931 33.735249 
rfemur -37.163258 -8.900127 11.972469 
rtibia 68.194190 
rfoot -18.192369 -9.285515 
rtoes -5.380076 
lfemur -12.116421 -3.166038 -32.191257 
ltibia 22.630125 
lfoot -22.297664 2.681121 
ltoes -18.618882 
204
root -6.559739 17.142379 -7.963155 6.039982 3.120626 7.023498
lowerback -9.263870 -1.549458 -9.145924 
upperback 1.845252 -0.910503 -1.657087 
thorax 7.314875 -0.816004 3.237389 
lowerneck -4.614624 -4.701777 -5.977409 
upperneck 6.473110 -6.424000 7.011144 
head 3.436943 -3.116982 3.118353 
rclavicle 0.000000 0.000000 
rhumerus -45.463895 -31.622606 -71.735115 
rradius 32.800620 
rwrist 38.901451 
rhand -18.490001 -4.367107 
rfingers 0.000000 
rthumb 7.797415 -34.203355 
lclavicle 0.000000 0.000000 
lhumerus -24.719915 24.721171 83.052467 
lradius 31.295248 
lwrist -43.569406 
lhand -8.907143 4.491275 
lfingers 0.000000 
lthumb 17.035798 33.764314 
rfemur -37.577352 -8.673876 11.972072 
rtibia 67.334993 
rfoot -18.287194 -9.307918 
rtoes -6.886910 
lfemur -11.792181 -3.235535 -32.285222 
ltibia 22.541745 
lfoot -22.559499 2.590322 
ltoes -18.680063 
205
root -6.550374 17.140151 -7.895945 6.064807 3.164166 6.971555
lowerback -9.250270 -1.624485 -9.120112 
upperback 1.854231 -1.016768 -1.604989 
thorax 7.330689 -0.868212 3.261499 
lowerneck -4.559949 -4.667190 -5.924328 
upperneck 6.379646 -6.373441 6.953160 
head 3.384585 -3.093517 3.091403 
rclavicle 0.000000 0.000000 
rhumerus -45.660784 -31.584650 -71.658440 
rradius 32.841507 
rwrist 38.949981 
rhand -18.561358 -4.369624 
rfingers 0.000000 
rthumb 7.728566 -34.208381 
lclavicle 0.000000 0.000000 
lhumerus -24.310619 24.499458 83.252512 
lradius 31.413296 
lwrist -43.292163 
lhand -8.821415 4.438422 
lfingers 0.000000 
lthumb 17.118306 33.704266 
rfemur -37.996445 -8.480949 12.093987 
rtibia 66.422971 
rfoot -18.405143 -9.385621 
rtoes -7.190156 
lfemur -11.482122 -3.347033 -32.259814 
ltibia 22.409293 
lfoot -22.766770 2.570582 
ltoes -18.814617 
